<?xml version="1.0" standalone="no"?>
<!DOCTYPE svg PUBLIC "-//W3C//DTD SVG 20010904//EN"
 "http://www.w3.org/TR/2001/REC-SVG-20010904/DTD/svg10.dtd">
<svg version="1.0" xmlns="http://www.w3.org/2000/svg"
 width="912.000000pt" height="912.000000pt" viewBox="0 0 912.000000 912.000000"
 preserveAspectRatio="xMidYMid meet">
<metadata>
Created by potrace 1.14, written by Peter Selinger 2001-2017
</metadata>
<g transform="translate(0.000000,912.000000) scale(0.100000,-0.100000)"
fill="#000000" stroke="none">
<path d="M4210 9077 c-3 -3 -43 -8 -90 -12 -47 -4 -101 -9 -120 -10 -19 -2
-35 -4 -35 -5 0 -1 -11 -3 -25 -5 -65 -8 -109 -15 -160 -24 -30 -5 -82 -15
-115 -21 -33 -6 -67 -14 -75 -17 -8 -3 -22 -7 -30 -8 -76 -12 -326 -82 -430
-120 -25 -9 -53 -18 -63 -20 -9 -2 -22 -7 -27 -10 -5 -3 -18 -8 -27 -10 -20
-4 -156 -59 -268 -107 -126 -54 -337 -163 -469 -240 -87 -52 -241 -152 -244
-160 -2 -5 -8 -8 -13 -8 -9 0 -58 -32 -85 -55 -7 -5 -24 -19 -40 -30 -34 -24
-221 -171 -249 -196 -11 -10 -45 -39 -75 -66 -77 -68 -335 -327 -395 -397 -27
-32 -55 -64 -61 -70 -7 -7 -55 -68 -108 -137 -53 -68 -103 -132 -111 -142 -8
-9 -15 -19 -15 -21 0 -4 -90 -139 -107 -161 -11 -14 -104 -167 -142 -235 -60
-104 -199 -395 -250 -522 -73 -181 -140 -388 -191 -587 -23 -92 -33 -138 -65
-306 -11 -57 -35 -232 -40 -290 -2 -23 -6 -53 -9 -68 -9 -54 -20 -304 -18
-457 1 -226 12 -386 38 -570 3 -19 7 -51 9 -70 3 -19 7 -46 10 -60 3 -14 7
-41 10 -60 2 -19 11 -69 20 -110 9 -41 18 -83 20 -93 2 -10 6 -26 9 -35 3 -9
7 -29 10 -43 15 -88 138 -482 157 -504 5 -5 9 -17 9 -27 0 -10 4 -26 9 -36 12
-22 35 -75 60 -138 32 -82 189 -396 226 -454 5 -8 10 -17 11 -20 2 -14 209
-339 223 -350 3 -3 20 -25 36 -50 16 -25 32 -47 35 -50 3 -3 49 -59 102 -126
53 -67 118 -145 145 -175 84 -93 315 -322 393 -389 41 -36 77 -67 80 -70 20
-21 286 -224 322 -245 34 -20 173 -114 185 -124 7 -6 14 -11 17 -11 6 0 130
-73 136 -80 20 -24 565 -280 596 -280 8 0 14 -5 14 -12 0 -6 3 -9 6 -5 3 3 29
-3 58 -14 28 -12 101 -37 161 -56 61 -19 137 -44 169 -54 33 -10 61 -17 64
-14 3 2 12 0 22 -5 27 -14 251 -64 380 -85 19 -3 63 -10 98 -16 34 -5 84 -12
110 -14 26 -3 63 -7 82 -10 82 -12 330 -26 470 -26 65 0 325 11 375 16 113 11
148 15 255 30 19 3 49 7 65 9 17 2 44 7 60 10 17 3 46 8 65 11 78 13 302 66
400 95 58 17 116 33 129 36 14 3 29 8 35 12 6 3 16 7 21 8 40 7 280 99 388
147 42 20 77 33 77 29 0 -4 4 -2 8 3 8 11 199 107 222 111 8 2 16 8 18 13 2 6
8 11 14 11 9 0 259 143 283 162 31 24 148 98 156 98 5 0 9 4 9 9 0 5 17 20 37
32 33 21 252 188 279 214 6 5 35 30 64 55 116 99 388 376 480 489 19 24 40 48
45 55 27 28 177 229 226 301 30 44 57 82 62 83 4 2 7 7 7 12 0 5 23 46 52 92
99 160 214 380 304 583 25 57 86 208 90 224 2 9 26 80 53 158 26 79 47 143 46
143 -2 0 7 33 20 74 13 41 27 94 31 118 9 49 11 57 14 61 2 3 6 21 15 67 3 19
10 53 15 75 5 22 11 56 14 75 3 19 8 46 11 60 6 33 15 89 20 141 5 43 12 84
15 84 0 0 2 29 4 65 2 36 7 117 11 180 10 146 10 339 1 505 -7 131 -9 150 -20
240 -3 28 -8 74 -11 103 -3 29 -7 63 -10 75 -3 12 -7 36 -10 52 -10 76 -25
150 -50 260 -8 33 -16 71 -19 85 -7 42 -83 299 -120 405 -138 402 -334 782
-582 1133 -210 296 -493 605 -749 817 -33 28 -62 52 -65 55 -3 3 -36 30 -75
60 -38 30 -71 58 -73 62 -2 5 -8 8 -12 8 -5 0 -38 21 -73 48 -76 56 -78 57
-185 127 -46 30 -86 55 -88 55 -3 0 -30 16 -61 36 -115 74 -548 288 -625 309
-5 2 -10 4 -13 5 -3 1 -8 3 -12 4 -5 1 -25 10 -47 19 -21 9 -44 17 -51 17 -6
0 -15 3 -19 7 -3 4 -12 8 -19 9 -7 2 -58 19 -115 38 -56 20 -113 38 -125 40
-12 3 -62 17 -112 31 -125 35 -381 90 -468 100 -23 2 -52 6 -65 9 -13 3 -53 8
-90 12 -37 3 -80 9 -97 11 -38 6 -779 15 -785 10z m493 -201 c70 1 81 -3 31
-12 -16 -3 -36 -7 -44 -9 -8 -2 -42 -7 -75 -11 -71 -8 -84 -10 -109 -20 -16
-6 -18 -4 -13 10 4 10 7 24 7 31 0 16 47 23 100 15 19 -3 66 -5 103 -4z m-316
-33 c-6 -19 -13 -32 -17 -31 -3 2 -29 12 -58 22 -29 11 -52 23 -52 27 0 8 45
14 106 14 30 1 31 0 21 -32z m-165 -75 l58 -24 -32 -19 c-17 -11 -46 -29 -64
-40 -77 -47 -452 -279 -484 -300 -81 -53 -231 -145 -236 -145 -3 0 -17 -8 -32
-18 -89 -61 -513 -322 -522 -322 -5 0 -10 -3 -12 -7 -4 -10 -107 -73 -119 -73
-5 0 -9 -4 -9 -10 0 -5 -4 -10 -9 -10 -4 0 -94 -54 -200 -120 -106 -66 -196
-120 -201 -120 -5 0 -10 -4 -12 -8 -1 -4 -61 -43 -133 -87 -71 -43 -155 -94
-185 -113 -30 -19 -71 -45 -90 -57 -19 -12 -79 -49 -132 -83 -54 -34 -98 -59
-98 -56 0 6 141 216 151 224 3 3 33 45 66 94 l61 89 69 1 c59 1 74 6 115 33
86 60 115 171 68 263 l-21 41 78 112 c43 62 96 139 118 172 22 33 46 66 53 73
6 8 17 23 24 35 34 66 72 98 176 149 59 29 109 53 112 54 3 0 28 11 55 23 270
123 706 254 985 297 25 4 77 12 115 18 66 11 75 10 150 -16 44 -15 106 -38
137 -50z m1081 47 c15 -3 37 -7 50 -9 48 -8 185 -38 237 -52 58 -16 79 -21
108 -28 9 -2 55 -16 102 -31 47 -15 92 -29 100 -30 8 -2 15 -4 15 -5 0 -1 7
-3 15 -5 30 -8 236 -87 282 -108 27 -13 44 -27 40 -33 -4 -5 -29 -28 -56 -49
-28 -22 -62 -51 -77 -65 -99 -92 -149 -130 -149 -112 0 11 -46 23 -105 28 -53
4 -99 -11 -140 -48 -26 -22 -38 -27 -52 -19 -20 10 -72 33 -178 77 -38 15 -73
33 -77 39 -4 5 -8 6 -8 1 0 -5 -7 -3 -15 4 -8 7 -15 10 -15 7 0 -3 -30 8 -67
24 -38 17 -77 34 -88 38 -11 5 -41 18 -67 30 -26 12 -50 21 -52 21 -2 0 -25
10 -52 22 -27 12 -51 23 -54 23 -3 1 -21 8 -40 17 -19 8 -64 28 -100 43 -36
15 -83 35 -105 45 -22 9 -77 32 -122 51 -46 18 -81 34 -80 36 2 1 19 5 38 7
19 3 34 5 34 6 0 1 11 3 25 5 14 2 41 5 60 9 19 3 53 8 75 11 22 3 63 9 90 15
84 16 209 34 243 34 12 1 22 4 22 8 0 7 110 2 163 -7z m-853 -157 c0 -6 3 -9
6 -6 3 4 35 -7 72 -24 72 -33 103 -45 115 -46 4 -1 20 -8 35 -15 41 -22 96
-46 352 -156 129 -55 323 -137 430 -183 l194 -83 3 -50 3 -50 -82 -45 c-46
-24 -86 -44 -90 -42 -5 1 -8 -2 -8 -7 0 -5 -15 -14 -32 -22 -18 -7 -35 -15
-38 -18 -3 -3 -32 -20 -65 -38 -33 -17 -89 -47 -125 -67 -36 -20 -96 -53 -135
-73 -38 -19 -72 -38 -75 -42 -3 -3 -32 -19 -65 -36 -33 -16 -76 -39 -95 -51
-19 -11 -64 -37 -100 -56 -282 -150 -466 -253 -472 -262 -4 -6 -8 -8 -8 -4 0
4 -31 -10 -68 -32 -37 -21 -95 -53 -127 -70 -33 -18 -82 -45 -110 -60 -127
-69 -276 -151 -340 -185 -38 -21 -109 -60 -158 -87 -48 -26 -89 -48 -92 -48
-3 0 -22 -10 -43 -23 -20 -13 -82 -48 -137 -77 -55 -29 -106 -58 -114 -64 -12
-9 -13 -8 -9 6 6 15 806 1217 818 1228 3 3 11 17 19 33 8 15 18 27 23 27 4 0
8 5 8 10 0 12 41 73 53 78 4 2 7 7 7 12 0 11 82 134 93 138 4 2 7 8 7 13 0 11
42 72 53 77 4 2 7 10 7 18 0 8 5 14 10 14 6 0 10 7 10 15 0 8 5 15 10 15 6 0
10 5 10 10 0 12 41 73 53 78 4 2 7 8 7 13 0 10 34 60 63 93 9 11 17 23 17 28
0 4 12 26 28 47 15 21 34 48 42 60 16 23 40 28 40 9z m-217 -81 c-4 -7 -81
-122 -170 -255 -90 -133 -163 -247 -163 -251 0 -5 -4 -11 -8 -13 -5 -1 -211
-307 -458 -678 -247 -371 -454 -681 -461 -687 -6 -7 -17 -11 -25 -8 -64 22
-148 2 -197 -49 -28 -29 -37 -33 -60 -26 -37 12 -263 89 -281 97 -8 3 -17 7
-20 8 -17 4 -118 38 -135 45 -11 4 -76 27 -145 50 -145 49 -318 109 -340 117
-8 3 -22 7 -30 9 -8 2 -37 12 -64 22 l-48 19 78 49 c43 27 86 54 96 59 10 6
70 43 134 83 64 39 120 72 125 72 5 0 9 4 9 8 0 5 15 16 33 25 17 10 82 48
142 86 91 58 351 218 413 256 9 6 36 23 59 38 24 15 47 27 52 27 5 0 11 3 13
8 4 9 107 72 118 72 5 0 10 4 12 8 2 6 162 108 230 147 10 6 75 46 145 90 70
44 135 83 143 88 8 4 27 15 42 25 142 90 260 162 267 162 5 0 11 4 13 8 2 5
37 28 78 52 41 25 77 47 80 50 3 3 57 37 120 75 63 38 117 71 120 74 5 6 82
50 88 51 2 0 -1 -6 -5 -13z m2457 -268 c0 -5 -6 -9 -12 -10 -7 0 -24 -2 -38
-5 -14 -2 -38 -6 -55 -9 -16 -3 -44 -7 -61 -9 -27 -3 -82 -12 -134 -21 -8 -1
-35 -6 -60 -10 -25 -3 -58 -9 -75 -12 -40 -7 -72 -11 -120 -17 -22 -3 -50 -8
-62 -11 -34 -8 -28 8 20 50 23 20 75 67 116 103 41 37 90 81 110 99 l35 32
168 -86 c92 -47 168 -90 168 -94z m-4410 -137 c-30 -42 -74 -106 -98 -142 -25
-36 -46 -67 -48 -69 -2 -3 -28 -3 -58 -2 -167 7 -277 -156 -203 -299 l27 -51
-23 -32 c-12 -18 -24 -34 -27 -37 -14 -14 -50 -70 -50 -79 0 -5 -4 -11 -8 -13
-8 -3 -136 -187 -245 -350 l-52 -78 -60 6 c-33 4 -67 8 -75 9 -46 6 -128 18
-145 21 -27 5 -117 17 -132 17 -7 0 -13 5 -13 10 0 9 98 145 124 173 6 6 23
26 38 45 117 149 395 435 529 544 14 11 49 41 79 66 30 25 82 65 115 90 33 24
62 46 65 50 3 3 48 34 100 70 52 35 97 67 100 70 3 4 24 16 47 28 23 11 45 26
48 32 4 5 10 8 13 5 3 -4 -19 -41 -48 -84z m4648 -4 c29 -21 54 -38 57 -38 3
0 107 -74 150 -107 139 -108 186 -145 197 -155 7 -7 38 -34 68 -59 30 -26 100
-89 154 -141 l100 -95 -39 -129 c-21 -71 -44 -149 -51 -174 -13 -46 -64 -219
-109 -365 -13 -44 -27 -93 -31 -110 -4 -16 -9 -34 -13 -40 -6 -11 -8 -17 -10
-40 0 -8 -5 -15 -11 -15 -5 0 -68 57 -139 128 -586 575 -834 818 -1009 990
l-202 199 14 34 c15 35 26 40 126 55 25 3 54 8 65 10 23 4 71 11 130 19 22 3
51 7 65 10 14 3 41 7 60 10 36 4 100 14 129 20 34 6 97 16 130 20 18 2 35 6
37 8 2 2 21 3 42 3 27 -1 53 -12 90 -38z m-1248 -291 c-24 -39 -56 -96 -72
-125 -16 -29 -98 -170 -182 -315 -83 -144 -155 -269 -159 -277 -4 -8 -13 -24
-20 -35 -7 -11 -29 -49 -50 -85 -21 -36 -42 -72 -47 -80 -16 -27 -112 -194
-138 -240 -14 -25 -36 -62 -49 -82 -12 -21 -23 -42 -23 -48 0 -5 -5 -10 -12
-10 -6 0 -9 -3 -5 -6 3 -3 -10 -30 -29 -59 -19 -30 -34 -59 -34 -65 0 -5 -4
-10 -10 -10 -5 0 -10 -4 -10 -9 0 -5 -57 -108 -126 -228 -70 -120 -138 -238
-152 -263 -14 -25 -70 -121 -124 -214 -54 -93 -98 -171 -98 -173 0 -2 -6 -10
-13 -17 -10 -10 -31 1 -112 60 -55 41 -109 80 -120 88 -56 40 -201 146 -210
153 -5 5 -26 19 -45 33 -38 26 -171 124 -317 232 -51 37 -95 68 -98 68 -4 0
-12 6 -19 13 -7 6 -81 61 -165 122 -141 102 -151 112 -145 135 4 14 7 43 7 66
-1 38 2 43 35 61 62 33 248 133 352 190 231 126 301 163 310 163 5 0 10 4 10
9 0 5 12 14 28 20 15 5 54 25 87 44 33 18 101 55 150 82 50 27 122 66 160 87
39 22 82 45 98 51 15 6 27 15 27 19 0 4 9 8 19 8 11 0 23 5 26 10 3 6 23 18
43 28 20 10 118 63 217 117 99 54 218 118 265 144 47 25 103 55 125 67 22 13
69 38 105 57 36 20 99 54 140 77 41 22 91 49 110 58 19 9 41 23 48 30 7 6 18
12 23 12 5 0 27 11 49 25 22 14 40 22 40 18 0 -5 4 -3 8 2 4 6 32 23 62 39 30
16 59 33 65 38 25 23 13 -19 -25 -85z m424 -66 c214 -212 571 -562 899 -883
169 -166 307 -305 307 -309 0 -5 -105 -49 -135 -56 -10 -2 -248 -92 -310 -118
-16 -7 -43 -17 -60 -23 -16 -6 -73 -27 -125 -47 -52 -21 -99 -38 -105 -40 -5
-1 -19 -6 -30 -10 -52 -21 -121 -47 -130 -50 -5 -1 -17 -5 -25 -8 -8 -4 -100
-38 -203 -77 l-189 -70 -20 25 c-11 14 -38 35 -59 46 -83 42 -174 27 -241 -38
-40 -39 -56 -75 -61 -138 l-4 -40 -254 -96 c-140 -53 -261 -98 -269 -101 -8
-4 -49 -18 -90 -33 -41 -15 -97 -36 -125 -47 -27 -11 -54 -21 -60 -23 -11 -2
-40 -13 -70 -25 -49 -20 -242 -91 -258 -95 -9 -2 -22 -7 -27 -10 -20 -12 -9
12 52 115 33 58 72 125 86 150 13 25 27 50 32 55 4 6 19 30 32 55 14 25 34 61
45 80 72 124 93 163 93 171 0 5 4 9 9 9 5 0 11 8 14 18 4 9 17 36 31 58 88
148 166 286 166 294 0 6 5 10 10 10 6 0 10 4 10 9 0 5 23 49 51 98 29 48 63
108 77 133 13 25 28 50 32 55 5 6 19 30 32 55 14 25 66 116 116 204 51 87 92
160 92 162 0 2 14 23 30 47 17 25 30 48 30 51 0 3 27 51 60 106 33 55 60 103
60 105 0 3 12 24 27 48 14 23 40 67 56 97 16 30 35 62 41 70 6 8 22 36 36 63
19 37 30 47 50 48 42 1 86 8 111 18 13 5 26 10 28 10 3 1 63 -57 135 -128z
m1726 -437 c90 -103 240 -299 240 -313 0 -5 4 -11 8 -13 16 -6 102 -142 94
-149 -7 -6 -129 -47 -162 -54 -8 -2 -42 -13 -75 -25 -33 -12 -68 -23 -77 -25
-10 -2 -80 -24 -157 -49 -77 -24 -148 -43 -158 -42 -10 2 -25 0 -34 -5 -26
-13 -28 -1 -10 54 10 29 18 54 19 57 0 3 10 37 22 77 12 39 23 78 24 85 2 7 6
20 9 28 3 8 20 65 37 125 18 61 35 117 38 125 3 8 6 20 7 26 3 12 54 182 61
204 5 14 31 -9 114 -106z m-6705 -410 c11 -3 36 -7 55 -9 19 -3 49 -7 65 -10
17 -3 55 -8 85 -11 99 -12 98 -7 20 -124 -38 -58 -73 -109 -77 -115 -9 -11
-19 -25 -176 -260 -56 -82 -104 -151 -109 -153 -4 -2 -8 -7 -8 -12 0 -8 -79
-130 -90 -140 -3 -3 -21 -30 -40 -60 -19 -30 -38 -56 -42 -58 -5 -2 -8 -10 -8
-17 0 -7 -3 -15 -7 -17 -11 -4 -113 -158 -113 -169 0 -5 -3 -9 -7 -9 -5 0 -26
-28 -48 -63 -22 -34 -42 -64 -45 -67 -3 -3 -46 -66 -95 -140 -49 -74 -93 -136
-97 -138 -5 -2 -8 -8 -8 -12 0 -5 -12 -26 -26 -47 l-26 -38 5 50 c4 28 9 61
12 75 9 44 15 69 20 97 92 444 307 962 568 1371 l60 93 56 -7 c31 -3 65 -8 76
-10z m510 -100 c39 -14 84 -29 100 -33 17 -5 39 -13 50 -18 11 -6 25 -12 30
-13 6 -2 15 -4 20 -5 13 -4 165 -55 185 -63 8 -3 17 -6 20 -7 17 -4 118 -38
135 -45 11 -4 76 -27 145 -50 69 -23 132 -44 140 -47 8 -3 62 -22 120 -42 100
-34 105 -37 108 -66 1 -16 12 -51 23 -76 l21 -47 -46 -58 c-64 -81 -217 -281
-366 -475 -68 -90 -128 -165 -132 -167 -4 -2 -8 -8 -8 -13 0 -8 -6 -16 -51
-69 -8 -10 -24 -31 -35 -45 -10 -14 -68 -90 -128 -168 -59 -78 -118 -155 -130
-170 -11 -16 -36 -47 -53 -70 -18 -23 -164 -213 -324 -422 -160 -209 -298
-389 -307 -400 -9 -12 -57 -75 -107 -140 -49 -66 -92 -122 -95 -125 -3 -3 -34
-43 -70 -90 -35 -47 -67 -87 -70 -90 -3 -3 -17 -21 -30 -40 -35 -49 -53 -70
-63 -70 -4 0 -3 8 2 18 6 11 12 30 15 43 2 13 21 85 41 159 64 238 107 404
112 429 2 14 6 28 9 33 3 4 7 18 9 30 4 23 24 100 86 328 17 63 32 122 34 130
2 9 22 87 45 175 23 88 44 166 46 175 2 8 15 60 30 115 14 55 28 107 30 115 2
8 15 60 30 115 14 55 28 107 30 115 2 8 15 60 30 115 14 55 27 107 29 115 2 8
11 40 19 70 21 79 60 228 95 360 16 63 48 185 71 270 22 85 42 163 43 172 2
10 6 21 10 24 4 4 7 16 7 26 0 24 12 23 95 -8z m6613 -75 c-2 -4 4 -15 13 -25
29 -34 229 -416 229 -439 0 -2 11 -28 24 -57 13 -29 35 -84 50 -123 15 -38 33
-84 40 -101 13 -27 11 -38 -19 -125 -42 -120 -128 -360 -292 -819 -30 -85 -60
-170 -66 -188 -7 -22 -15 -31 -25 -27 -7 3 -17 5 -22 5 -5 0 -12 10 -15 23 -7
20 -19 52 -46 112 -5 11 -45 110 -89 220 -44 110 -85 209 -90 220 -5 11 -46
110 -90 220 -45 110 -90 219 -100 242 -11 24 -20 46 -20 49 0 3 -6 20 -14 37
-11 28 -36 88 -67 162 -4 11 -20 49 -34 85 -14 36 -30 74 -35 85 -30 64 -90
219 -87 222 2 2 114 37 248 79 134 42 298 93 364 114 112 36 150 44 143 29z
m-6867 -137 c-5 -9 -16 -44 -25 -77 -15 -54 -19 -71 -31 -125 -2 -8 -4 -15 -5
-15 -1 0 -3 -7 -5 -15 -2 -8 -20 -78 -40 -155 -21 -77 -39 -147 -40 -155 -2
-8 -4 -15 -5 -15 -1 0 -4 -8 -14 -50 -2 -11 -13 -54 -24 -95 -12 -41 -42 -156
-67 -255 -26 -99 -59 -227 -75 -285 -42 -159 -120 -455 -125 -476 -2 -11 -16
-62 -30 -114 -15 -52 -28 -103 -30 -113 -2 -10 -7 -27 -10 -37 -3 -10 -8 -27
-10 -37 -7 -35 -55 -218 -61 -233 -4 -8 -8 -24 -9 -36 -2 -11 -9 -40 -16 -65
-7 -24 -13 -48 -15 -54 -1 -5 -7 -30 -15 -55 -15 -53 -16 -59 -22 -85 -2 -11
-9 -40 -16 -65 -7 -25 -15 -52 -17 -60 -2 -8 -8 -33 -14 -55 -6 -22 -12 -47
-14 -55 -5 -17 -50 -188 -64 -240 -6 -19 -13 -48 -16 -63 -4 -15 -10 -25 -15
-22 -5 2 -25 7 -45 10 -20 3 -52 7 -72 10 -20 3 -40 7 -44 10 -7 4 -36 120
-45 179 -2 12 -6 35 -9 51 -12 62 -19 101 -22 130 -2 17 -6 39 -8 50 -5 18 -8
52 -21 180 -24 247 -25 598 -1 843 3 33 27 75 113 205 59 89 110 164 113 167
3 3 25 37 50 75 25 39 47 72 50 75 6 6 179 261 200 296 21 34 434 648 440 654
3 3 28 39 55 80 49 74 76 110 83 110 1 0 -2 -8 -7 -18z m6135 -452 c45 -108
46 -111 84 -200 18 -41 33 -79 35 -85 1 -5 7 -22 13 -36 5 -14 38 -95 72 -180
34 -85 70 -172 80 -194 9 -22 72 -176 140 -343 l123 -303 -32 -28 c-17 -15
-31 -33 -31 -39 0 -7 -4 -12 -9 -12 -8 0 -12 -11 -26 -62 -2 -5 -3 -16 -4 -26
-1 -15 -25 -25 -123 -51 -68 -18 -131 -35 -140 -37 -10 -2 -26 -6 -35 -9 -10
-2 -54 -14 -98 -26 -44 -11 -87 -22 -95 -24 -8 -2 -51 -13 -95 -25 -185 -50
-501 -132 -520 -135 -11 -2 -20 -4 -20 -5 0 -1 -7 -3 -15 -5 -8 -2 -24 -6 -35
-9 -28 -8 -137 -36 -155 -40 -19 -5 -266 -70 -345 -91 -33 -9 -69 -18 -80 -20
-11 -3 -60 -16 -109 -29 -49 -14 -93 -23 -98 -20 -4 3 -8 0 -8 -7 0 -7 -3 -10
-6 -7 -3 3 -29 -1 -57 -9 -90 -25 -321 -84 -346 -89 -14 -3 -28 -7 -32 -10 -4
-2 -10 0 -14 6 -3 5 22 46 57 89 35 44 71 90 80 103 20 27 403 526 421 548 7
8 125 161 262 340 137 179 255 331 262 338 7 7 13 16 13 20 0 4 13 21 28 38
15 17 38 46 52 64 14 18 124 162 245 319 263 342 241 314 339 442 43 57 86
110 94 116 13 11 21 0 55 -85 21 -53 54 -135 73 -182z m-273 251 c-10 -11 -22
-26 -28 -33 -86 -114 -141 -184 -147 -186 -4 -2 -8 -8 -8 -14 0 -5 -6 -15 -12
-23 -17 -17 -34 -38 -88 -110 -25 -33 -47 -62 -51 -65 -6 -6 -125 -159 -154
-200 -11 -15 -33 -45 -50 -66 -62 -80 -171 -222 -195 -254 -14 -18 -53 -69
-88 -114 -34 -45 -78 -101 -97 -126 -86 -112 -167 -216 -178 -230 -7 -9 -25
-33 -42 -55 -16 -22 -35 -47 -42 -55 -7 -8 -100 -130 -207 -270 -108 -140
-203 -264 -212 -275 -9 -11 -56 -73 -106 -137 l-90 -117 -36 13 c-20 7 -54 11
-74 9 -37 -3 -54 11 -93 79 -5 10 -85 124 -176 255 -92 131 -193 276 -225 323
-32 47 -60 87 -63 90 -3 3 -10 13 -16 22 -5 9 -45 68 -88 130 -43 62 -119 172
-169 243 l-89 130 33 14 c18 7 38 14 43 16 6 1 21 6 35 12 14 6 70 27 125 47
55 20 114 43 132 51 17 8 35 15 40 15 4 0 51 16 103 36 52 20 129 48 170 64
76 29 309 115 410 152 30 11 64 24 75 29 56 26 83 28 102 7 31 -35 94 -58 150
-54 102 7 178 78 192 180 7 42 2 40 186 108 44 16 121 44 170 62 50 19 128 48
175 65 47 17 216 80 375 140 160 60 298 109 308 110 16 1 16 0 0 -18z m-4142
-178 c35 -27 66 -51 67 -55 2 -5 10 -8 17 -8 7 0 15 -3 17 -7 2 -5 13 -15 24
-23 49 -34 190 -135 199 -143 6 -4 49 -36 98 -71 48 -35 97 -71 110 -80 12 -9
87 -64 167 -121 80 -58 152 -111 161 -117 8 -7 23 -17 31 -23 48 -30 248 -180
248 -185 0 -4 -28 -31 -62 -61 -35 -29 -74 -63 -88 -75 -14 -13 -95 -82 -180
-155 -85 -73 -173 -148 -196 -168 -22 -20 -62 -54 -88 -76 -26 -22 -57 -49
-69 -60 -25 -22 -143 -124 -232 -200 -32 -27 -69 -59 -81 -70 -12 -11 -43 -38
-70 -60 -26 -22 -62 -53 -78 -68 -17 -16 -62 -54 -100 -85 -39 -31 -79 -66
-91 -77 -33 -31 -141 -124 -172 -148 -15 -12 -35 -29 -43 -38 -8 -9 -44 -40
-80 -70 -75 -62 -126 -107 -152 -131 -10 -10 -20 -18 -22 -18 -2 0 -20 -15
-39 -32 -18 -18 -56 -51 -82 -73 -73 -61 -139 -117 -145 -124 -3 -4 -50 -44
-105 -91 -55 -47 -105 -89 -111 -95 -6 -5 -32 -28 -59 -50 -26 -22 -63 -53
-82 -70 -18 -16 -41 -36 -50 -44 -10 -8 -37 -32 -60 -55 l-43 -40 9 30 c7 22
130 338 176 449 5 11 9 22 10 25 1 3 6 16 12 30 6 14 27 68 47 120 20 52 42
106 47 120 6 14 38 95 72 180 l62 155 53 7 c111 16 188 106 185 215 -2 60 -20
101 -62 136 l-30 25 25 64 c14 34 32 77 39 93 7 17 68 170 135 340 67 171 128
324 135 340 7 17 25 62 40 100 15 39 34 84 41 102 8 17 14 34 14 37 0 3 8 25
19 49 10 23 29 69 41 102 13 33 29 74 36 90 7 17 27 66 44 110 58 149 62 155
89 156 39 1 55 5 87 22 16 9 34 16 40 17 5 0 39 -21 75 -47z m-404 -150 c-4
-8 -18 -42 -22 -53 -1 -3 -5 -14 -10 -25 -4 -11 -34 -85 -65 -165 -31 -80 -60
-154 -65 -165 -5 -11 -9 -22 -10 -25 -1 -3 -5 -14 -10 -25 -31 -77 -236 -592
-239 -600 -2 -5 -7 -19 -11 -30 -4 -11 -21 -54 -37 -95 -16 -41 -33 -84 -37
-95 -5 -11 -17 -41 -28 -67 -10 -27 -25 -48 -33 -49 -74 -4 -123 -30 -171 -91
-28 -35 -33 -48 -34 -106 -2 -70 3 -85 47 -141 27 -35 27 -41 -1 -106 -19 -43
-54 -130 -56 -140 -2 -10 -11 -32 -40 -100 -9 -22 -18 -44 -19 -50 -1 -5 -10
-27 -19 -49 -9 -21 -17 -44 -17 -50 0 -7 -4 -16 -8 -22 -5 -5 -17 -31 -27 -59
-9 -27 -23 -63 -30 -80 -7 -16 -27 -68 -45 -115 -18 -47 -39 -100 -47 -117 -7
-18 -25 -63 -39 -100 -13 -38 -29 -77 -34 -88 -5 -11 -18 -42 -28 -70 -10 -27
-23 -59 -27 -70 -9 -21 -12 -30 -14 -42 -7 -39 -21 -35 -337 123 -176 87 -321
158 -324 159 -3 1 -44 21 -92 45 l-86 43 40 56 c23 31 48 62 56 69 9 6 12 12
6 12 -5 0 -4 4 2 8 6 4 50 59 98 122 48 63 98 129 111 145 50 65 341 445 357
467 10 13 88 115 174 228 87 113 211 275 275 360 65 85 124 162 131 170 7 8
26 32 42 54 16 22 33 45 38 51 9 10 127 165 226 295 31 41 59 77 62 80 3 3 32
41 65 85 33 44 64 85 70 91 5 7 18 23 28 37 23 32 170 223 197 257 11 14 20
28 20 33 0 4 5 7 11 7 5 0 8 -3 6 -7z m5988 -333 c9 -30 18 -66 21 -80 2 -14
9 -36 14 -50 5 -14 14 -52 21 -85 7 -33 14 -64 15 -70 8 -27 53 -275 57 -312
l4 -43 -71 -45 c-39 -25 -78 -50 -86 -55 -38 -25 -298 -189 -327 -205 -18 -11
-35 -16 -39 -12 -6 6 34 123 146 427 21 58 62 170 90 250 29 80 62 172 75 205
13 33 29 79 36 103 15 50 21 46 44 -28z m-4299 -518 c22 -31 65 -93 94 -137
30 -44 63 -89 72 -99 10 -11 24 -32 30 -48 7 -15 15 -28 19 -28 3 0 27 -34 54
-75 27 -41 53 -75 57 -75 4 0 8 -4 8 -9 0 -8 253 -377 278 -407 5 -5 15 -20
21 -33 7 -12 19 -30 26 -39 8 -9 48 -66 90 -126 l76 -110 -22 -40 c-15 -27
-24 -60 -25 -98 -1 -31 -6 -63 -11 -70 -4 -8 -39 -32 -78 -53 -121 -67 -133
-73 -174 -99 -22 -15 -42 -26 -45 -26 -4 0 -176 -100 -206 -120 -8 -5 -42 -24
-75 -41 -33 -17 -67 -38 -76 -45 -8 -8 -19 -14 -22 -14 -4 0 -24 -11 -45 -23
-20 -13 -57 -35 -82 -49 -25 -14 -85 -48 -133 -77 -49 -28 -93 -51 -98 -51 -5
0 -9 -4 -9 -10 0 -5 -4 -10 -9 -10 -5 0 -86 -44 -179 -98 -93 -54 -175 -102
-183 -105 -8 -4 -29 -16 -47 -27 -18 -11 -124 -73 -235 -137 -111 -64 -255
-147 -320 -184 -65 -38 -122 -69 -127 -69 -6 0 -10 -4 -10 -10 0 -5 -4 -10
-10 -10 -5 0 -70 -36 -146 -80 -75 -44 -139 -80 -143 -80 -3 0 -17 -9 -31 -20
-48 -38 -49 -19 -2 58 26 42 88 147 137 232 49 85 93 157 97 158 4 2 8 8 8 13
0 13 152 273 162 277 4 2 8 8 8 12 0 5 37 71 81 147 45 76 93 158 107 183 13
25 28 50 32 55 5 6 21 33 37 61 22 40 102 176 258 442 6 9 28 49 50 87 21 39
43 72 47 73 4 2 8 8 8 13 0 7 54 101 117 204 7 11 15 27 19 35 7 13 68 118 94
160 5 8 35 60 66 115 32 55 60 102 63 105 3 3 14 21 25 40 23 43 35 63 121
210 37 63 80 136 94 163 14 26 30 47 36 47 5 0 28 -26 51 -58z m-269 -89 c-23
-43 -158 -270 -184 -310 -18 -28 -33 -54 -33 -57 0 -4 -126 -219 -166 -283 -8
-13 -15 -26 -15 -30 0 -5 -6 -15 -13 -23 -7 -8 -37 -57 -67 -108 -30 -51 -67
-114 -82 -140 -15 -26 -31 -54 -34 -62 -4 -8 -11 -19 -15 -25 -5 -5 -65 -107
-135 -225 -69 -118 -169 -289 -223 -380 -54 -91 -112 -190 -129 -220 -18 -30
-36 -62 -41 -70 -12 -18 -155 -262 -180 -305 -27 -47 -169 -288 -180 -305 -5
-8 -30 -51 -55 -95 l-46 -81 -64 -1 c-39 -1 -72 -7 -87 -17 -22 -15 -26 -15
-44 2 -10 10 -66 56 -124 102 -58 47 -114 92 -125 102 -11 9 -65 53 -120 98
-55 45 -109 89 -120 98 -11 9 -43 35 -70 57 -28 21 -52 42 -55 45 -3 3 -26 22
-53 43 -37 30 -44 41 -34 50 7 7 44 39 82 72 38 33 83 72 100 86 57 50 132
114 185 158 29 25 58 50 64 56 13 12 295 255 314 270 7 5 25 21 40 35 15 14
57 50 92 80 36 30 70 59 76 65 6 5 31 26 55 46 24 21 56 48 70 60 38 34 121
106 219 189 47 40 101 86 121 104 20 17 62 54 94 81 32 28 67 58 79 68 11 10
41 36 66 57 64 54 133 114 224 193 11 11 41 35 65 55 24 21 54 46 65 57 12 11
48 42 81 70 33 27 62 52 65 55 3 3 37 32 75 65 39 33 72 62 75 65 3 3 34 30
70 60 36 30 76 65 90 77 26 24 34 28 27 16z m4722 -191 c0 -9 3 -69 7 -132 7
-117 10 -401 4 -500 -2 -34 -14 -76 -31 -110 -15 -30 -37 -77 -49 -105 -12
-27 -35 -77 -50 -110 -63 -134 -100 -217 -100 -226 0 -5 -5 -9 -12 -9 -6 0 -9
-3 -5 -6 3 -4 -5 -27 -18 -53 -13 -25 -38 -77 -56 -116 -50 -111 -79 -175
-114 -250 -18 -38 -47 -101 -65 -140 -42 -91 -107 -232 -126 -270 -12 -27 -13
4 -9 270 3 165 7 392 10 505 3 113 7 326 10 475 4 220 8 271 20 277 70 40 107
102 110 187 l2 53 228 143 c126 79 232 142 236 139 4 -2 8 -12 8 -22z m-839
-427 c0 -5 -33 -38 -1304 -1319 -473 -476 -861 -864 -863 -863 -2 3 -73 269
-78 300 -2 9 -6 21 -9 25 -3 5 -7 19 -10 33 -2 13 -30 123 -61 244 -31 121
-60 236 -65 255 -4 19 -37 148 -72 285 l-65 250 30 30 c33 33 71 110 62 124
-6 11 57 32 170 58 37 8 50 11 50 13 0 1 10 3 23 6 13 2 65 16 115 30 51 14
99 27 108 29 8 2 61 15 117 30 56 15 107 28 114 29 7 2 20 6 28 9 8 4 26 9 40
11 14 3 25 5 25 6 0 1 9 3 20 4 11 2 47 11 80 20 33 9 67 18 75 21 177 44 277
70 328 86 35 10 66 18 70 17 4 -1 14 2 22 5 8 3 105 29 215 58 110 28 333 86
495 129 277 73 340 87 340 75z m120 -85 c16 -8 18 -20 14 -82 -2 -40 -6 -210
-9 -378 -14 -744 -16 -852 -19 -965 -2 -66 -4 -122 -5 -125 -1 -3 -11 -7 -23
-7 -69 -6 -143 -86 -155 -167 -7 -50 -9 -53 -60 -61 -26 -5 -50 -9 -53 -10 -3
0 -27 -4 -53 -9 -27 -4 -59 -9 -70 -12 -12 -2 -37 -7 -56 -10 -18 -3 -43 -8
-55 -10 -11 -2 -37 -7 -56 -10 -19 -3 -73 -12 -120 -21 -47 -8 -96 -17 -110
-19 -14 -2 -41 -7 -60 -11 -19 -3 -43 -7 -52 -8 -10 -2 -19 -3 -20 -4 -2 -2
-15 -4 -29 -6 -31 -4 -86 -13 -114 -19 -11 -2 -40 -7 -65 -11 -25 -4 -54 -9
-65 -11 -25 -5 -67 -13 -102 -19 -40 -6 -85 -14 -109 -19 -12 -2 -38 -7 -58
-10 -41 -7 -194 -33 -246 -43 -19 -4 -47 -7 -62 -7 -16 -1 -28 -4 -28 -8 0 -4
-8 -6 -17 -6 -10 0 -31 -2 -48 -5 -16 -3 -70 -13 -120 -21 -49 -9 -101 -18
-113 -21 -19 -3 -22 -1 -13 9 51 61 2108 2116 2119 2116 7 0 22 -4 32 -10z
m696 -487 c-3 -10 -7 -36 -11 -58 -5 -34 -13 -83 -29 -170 -14 -78 -18 -100
-18 -102 1 -2 -4 -17 -9 -35 -6 -18 -12 -41 -14 -50 -28 -128 -102 -366 -169
-543 l-33 -90 -112 -56 c-101 -51 -112 -54 -126 -40 -13 15 -11 23 11 71 14
30 35 75 46 100 11 25 43 92 69 149 27 57 49 104 49 106 0 2 22 49 49 106 27
57 72 156 101 219 50 110 80 175 149 322 17 36 31 71 31 77 0 6 5 11 11 11 6
0 8 -8 5 -17z m-3469 -257 c25 -1 32 -7 37 -32 2 -11 9 -39 16 -64 7 -25 14
-52 15 -60 2 -8 16 -60 30 -115 15 -55 28 -107 30 -115 2 -8 8 -35 15 -60 7
-25 14 -52 15 -60 2 -8 20 -78 40 -155 20 -77 38 -147 40 -155 2 -8 16 -60 30
-115 72 -279 125 -486 125 -493 0 -10 -20 -17 -300 -102 -129 -39 -242 -74
-250 -77 -8 -3 -19 -7 -25 -9 -5 -1 -62 -19 -125 -39 -63 -20 -122 -38 -130
-40 -18 -4 -179 -54 -200 -62 -8 -3 -20 -7 -26 -8 -16 -4 -492 -151 -616 -191
-58 -19 -115 -37 -125 -39 -17 -4 -326 -99 -473 -146 -36 -12 -72 -23 -80 -25
-8 -2 -26 -6 -40 -10 l-25 -7 20 23 c11 13 27 31 35 40 8 9 44 49 80 90 36 40
70 78 75 84 6 6 44 49 85 96 41 47 77 87 80 90 3 3 39 43 80 90 41 47 77 87
80 90 3 3 39 43 80 90 41 47 80 90 85 96 6 6 37 41 70 79 33 37 65 73 70 79 6
6 116 130 245 276 129 146 239 270 245 276 6 6 35 39 65 74 30 34 66 75 80 90
14 15 50 55 80 90 53 60 72 82 143 160 18 20 57 64 87 99 30 35 76 86 102 115
26 28 48 55 48 59 0 5 15 5 33 1 17 -4 42 -8 54 -8z m-243 -18 c-10 -12 -30
-34 -44 -49 -14 -15 -44 -48 -67 -75 -23 -27 -56 -65 -73 -84 -18 -19 -57 -64
-88 -100 -32 -36 -70 -79 -87 -97 -16 -17 -48 -52 -70 -78 -22 -26 -53 -61
-70 -79 -16 -18 -50 -56 -75 -85 -25 -29 -56 -65 -70 -80 -14 -14 -56 -62 -95
-106 -38 -43 -81 -90 -94 -104 -13 -14 -44 -50 -70 -80 -25 -29 -55 -63 -66
-75 -11 -12 -49 -55 -85 -95 -36 -41 -80 -90 -99 -110 -18 -20 -49 -56 -70
-80 -20 -24 -49 -58 -66 -75 -16 -18 -55 -61 -85 -96 -30 -35 -73 -83 -95
-107 -22 -23 -56 -61 -75 -83 -19 -23 -43 -52 -55 -64 -11 -12 -47 -53 -80
-90 -33 -37 -69 -78 -80 -90 -11 -12 -47 -53 -80 -90 -33 -37 -70 -79 -83 -93
l-23 -25 -18 24 c-20 24 -188 226 -224 268 -12 14 -35 41 -50 60 -16 19 -46
55 -67 80 -21 25 -68 80 -104 123 l-64 79 17 39 c11 25 17 56 15 84 l-4 44 68
39 c37 22 87 50 112 63 25 13 47 27 50 30 3 3 40 24 82 48 43 23 80 46 83 52
4 5 11 7 16 4 5 -4 9 -1 9 4 0 6 4 11 9 11 5 0 74 37 153 83 78 46 168 97 198
114 30 16 106 60 169 97 62 36 115 66 116 66 1 0 64 36 140 80 76 44 139 80
141 80 3 0 21 11 42 24 59 37 126 74 136 74 5 0 12 4 15 9 3 5 173 104 376
220 204 117 408 234 455 262 99 58 99 58 74 29z m-4597 -272 c2 -1 -12 -26
-31 -55 l-33 -53 -6 31 c-4 17 -7 34 -8 39 -1 4 -5 17 -10 30 -9 23 -8 24 38
17 26 -3 49 -7 50 -9z m538 -240 c198 -97 367 -180 375 -185 22 -12 19 -24
-15 -64 -16 -20 -40 -49 -52 -64 -12 -15 -30 -38 -40 -49 -10 -12 -29 -36 -43
-54 -14 -18 -30 -38 -35 -44 -6 -6 -28 -33 -50 -61 -21 -27 -44 -54 -50 -60
-6 -5 -21 -25 -34 -43 -13 -19 -34 -45 -47 -59 -13 -14 -51 -61 -85 -104 -35
-44 -65 -79 -69 -79 -10 0 -108 170 -180 316 l-72 144 0 263 c1 369 -1 339 20
328 9 -5 179 -88 377 -185z m-501 -28 c-1 -51 -3 -97 -4 -103 -1 -5 -12 21
-26 59 l-24 69 22 38 c12 21 24 36 28 34 3 -2 5 -46 4 -97z m1126 -331 c47
-38 94 -76 105 -85 11 -10 43 -35 70 -57 28 -22 52 -42 55 -45 3 -3 41 -34 85
-68 44 -34 89 -70 100 -80 15 -14 161 -132 184 -149 2 -2 -1 -15 -8 -30 -7
-15 -12 -54 -13 -87 l0 -61 -200 -130 c-110 -71 -206 -136 -213 -142 -8 -7
-16 -13 -20 -13 -7 0 -63 -39 -83 -57 -7 -7 -19 -13 -27 -13 -7 0 -15 -4 -17
-8 -4 -11 -239 -164 -259 -169 -9 -3 -26 9 -41 29 -14 18 -37 46 -52 61 -20
21 -25 35 -20 55 3 15 10 47 15 72 5 25 18 86 30 135 11 50 31 144 45 210 14
66 27 127 29 135 8 35 36 167 39 185 2 11 21 97 41 190 20 94 39 177 40 185 2
8 4 16 4 18 2 6 25 -12 111 -81z m-250 -78 c-6 -19 -13 -50 -16 -69 -3 -19
-10 -53 -16 -75 -6 -22 -11 -49 -13 -60 -1 -11 -7 -40 -13 -65 -6 -25 -13 -56
-16 -70 -2 -14 -12 -59 -21 -100 -9 -41 -17 -83 -18 -92 -1 -10 -4 -18 -7 -18
-3 0 -6 -10 -7 -23 -1 -12 -13 -76 -28 -142 -14 -66 -27 -130 -29 -142 -1 -12
-4 -25 -8 -28 -5 -6 -42 33 -88 94 -14 18 -29 38 -35 45 -5 6 -14 19 -20 28
-5 9 -34 50 -62 91 -29 42 -55 82 -58 90 -3 7 5 27 19 43 14 16 61 74 106 129
45 55 96 118 115 140 18 22 45 56 61 75 80 99 158 190 160 187 2 -2 -1 -19 -6
-38z m6969 -131 c-77 -151 -239 -425 -291 -493 -5 -5 -17 -21 -27 -35 -18 -23
-17 -19 4 63 12 48 20 87 17 87 -2 0 1 6 7 13 6 8 8 17 5 20 -3 3 -2 12 2 19
4 7 9 19 10 28 2 18 43 172 46 175 2 1 24 12 50 24 55 26 108 87 115 134 2 17
9 36 14 41 16 18 104 62 107 54 2 -4 -25 -62 -59 -130z m-454 -64 c-16 -15
-43 -38 -60 -52 -16 -15 -70 -60 -120 -102 -49 -41 -95 -79 -101 -85 -6 -5
-22 -19 -35 -30 -64 -52 -275 -231 -285 -240 -6 -5 -22 -19 -35 -30 -90 -76
-170 -143 -208 -174 -24 -20 -50 -42 -58 -50 -8 -7 -33 -29 -56 -48 -23 -19
-64 -54 -92 -77 -27 -22 -60 -51 -72 -63 -13 -12 -29 -26 -37 -30 -7 -4 -40
-31 -72 -59 -33 -28 -108 -93 -169 -143 -100 -84 -200 -170 -229 -196 -6 -6
-31 -26 -56 -45 -25 -19 -47 -37 -50 -41 -3 -3 -36 -32 -75 -64 -38 -32 -77
-65 -85 -72 -21 -19 -64 -55 -145 -121 -38 -31 -74 -62 -80 -67 -5 -6 -20 -18
-31 -28 l-22 -18 3 68 c4 77 14 236 20 333 3 36 7 99 10 140 3 41 7 116 10
165 3 50 8 115 11 145 4 51 11 163 19 305 2 33 4 60 5 60 0 0 3 38 5 85 9 204
2 185 74 196 20 3 86 14 146 25 61 11 124 22 140 25 17 2 68 12 115 20 88 17
101 19 160 28 19 3 46 8 60 11 14 2 36 7 50 10 14 2 41 7 60 10 33 5 48 8 110
20 14 3 45 8 68 10 24 3 47 7 50 9 4 2 23 7 42 10 98 15 114 18 134 22 73 14
192 36 214 39 15 2 27 4 27 5 0 2 22 6 75 14 30 4 147 25 240 42 14 2 40 7 59
10 18 3 43 8 55 10 11 3 35 7 51 10 17 2 64 10 105 18 41 8 77 14 80 15 3 0
-8 -11 -25 -25z m126 -135 c-28 -94 -101 -351 -106 -374 -17 -85 -48 -172 -71
-202 -118 -154 -381 -422 -569 -578 -33 -28 -62 -53 -65 -56 -3 -3 -36 -29
-75 -57 -38 -28 -76 -56 -83 -62 -18 -16 -188 -130 -252 -170 -129 -80 -292
-170 -312 -171 -53 -4 -203 -25 -203 -29 0 -1 -18 -3 -40 -4 -22 -2 -53 -6
-70 -9 -29 -6 -67 -12 -150 -21 -22 -3 -58 -8 -80 -12 -66 -10 -85 -12 -84 -5
0 3 35 34 77 68 83 67 98 80 262 218 58 50 126 106 150 125 24 19 63 53 88 75
25 22 54 47 66 55 12 8 26 19 31 25 6 7 51 45 100 86 50 40 92 76 95 79 3 3
43 37 90 75 47 38 87 72 90 75 3 3 59 50 125 105 66 55 125 104 131 110 16 14
49 42 121 102 34 28 68 56 75 62 7 6 23 19 34 29 40 32 118 97 128 107 6 6 38
32 71 60 33 27 62 52 65 55 3 3 27 24 55 45 27 22 56 47 65 55 9 8 38 33 65
55 27 22 57 48 67 58 10 9 18 15 18 12 0 -3 12 7 28 22 30 31 74 64 79 59 2
-1 -6 -32 -16 -67z m-2316 -391 c-4 -57 -8 -132 -11 -168 -2 -36 -6 -94 -9
-130 -2 -36 -7 -112 -10 -170 -4 -58 -8 -125 -10 -150 -2 -25 -7 -94 -10 -155
-3 -60 -8 -137 -11 -170 -8 -104 -13 -196 -19 -315 -4 -63 -8 -116 -10 -119
-8 -7 -112 -15 -340 -27 -55 -2 -122 -6 -150 -9 -27 -2 -95 -6 -150 -9 -55 -3
-138 -8 -185 -11 -47 -3 -123 -8 -170 -10 -91 -4 -238 -13 -335 -20 -33 -3
-112 -7 -175 -11 -63 -3 -140 -7 -170 -9 -30 -2 -109 -7 -175 -10 -66 -3 -128
-9 -137 -11 -35 -10 -17 16 40 58 31 23 59 45 60 50 2 4 10 8 17 8 7 0 15 4
17 8 2 4 80 66 173 137 94 71 206 156 250 189 44 34 86 66 93 73 10 10 21 8
53 -9 54 -28 105 -32 159 -13 46 16 110 69 110 91 0 7 6 14 13 17 8 2 12 30
12 89 l0 85 163 124 c90 68 172 131 182 139 10 8 27 22 37 30 10 8 30 23 44
32 14 9 32 23 40 30 8 8 30 25 49 38 19 13 37 27 40 30 3 4 32 26 65 51 33 24
74 56 90 71 17 16 34 28 38 28 4 0 22 13 40 30 18 16 35 30 38 30 3 0 16 9 28
19 12 10 51 41 87 67 36 27 79 61 97 76 18 15 36 28 40 28 5 0 6 -46 2 -102z
m-220 73 c-6 -4 -84 -64 -175 -132 -91 -68 -167 -126 -170 -129 -3 -3 -48 -37
-100 -75 -52 -39 -102 -77 -112 -85 -21 -19 -27 -24 -118 -90 -41 -30 -83 -62
-93 -71 -10 -9 -53 -42 -96 -73 l-78 -56 -34 18 c-40 20 -170 23 -177 4 -2 -7
-9 -12 -15 -12 -17 -1 -48 -29 -77 -70 -21 -30 -25 -47 -26 -112 l0 -77 -76
-58 c-42 -32 -89 -67 -104 -78 -15 -11 -32 -24 -38 -30 -6 -5 -47 -37 -91 -70
-44 -33 -87 -65 -95 -72 -17 -14 -266 -204 -322 -246 -36 -26 -37 -27 -48 -8
-5 11 -10 28 -10 38 0 11 -5 24 -12 31 -7 7 -8 12 -4 12 5 0 3 7 -4 15 -7 8
-9 15 -6 15 4 0 2 8 -3 18 -6 11 -12 30 -15 43 -2 13 -20 71 -39 129 -63 193
-107 335 -106 340 1 3 -6 22 -15 44 -32 76 -39 138 -16 141 14 2 89 25 425
130 61 19 153 48 205 64 52 16 167 52 255 79 88 28 201 63 250 78 50 15 140
43 200 62 61 19 116 35 123 35 6 0 12 3 12 7 0 4 6 7 13 8 19 1 47 8 112 30
33 11 114 36 180 56 164 51 390 121 445 139 56 18 67 20 55 8z m-2893 -128
c40 -49 75 -90 78 -93 3 -3 28 -32 55 -65 28 -33 65 -77 84 -97 19 -21 41 -48
49 -60 9 -13 18 -25 21 -28 4 -3 31 -34 61 -70 30 -36 61 -71 68 -79 7 -7 11
-18 9 -24 -3 -10 -74 -30 -174 -51 -13 -3 -26 -7 -31 -10 -5 -3 -23 -8 -41
-11 -17 -3 -57 -12 -89 -21 -69 -18 -85 -23 -114 -29 -12 -2 -85 -21 -163 -41
-77 -20 -147 -37 -155 -39 -8 -2 -88 -22 -177 -44 -89 -23 -169 -41 -177 -41
-8 0 -30 13 -48 30 -18 16 -36 30 -40 30 -5 0 -8 5 -8 11 0 9 164 255 179 269
3 3 24 32 46 65 22 33 42 62 45 65 3 3 25 34 49 70 25 36 48 67 51 70 4 3 9
12 13 20 4 8 34 53 68 100 33 47 68 97 77 112 16 26 21 27 62 22 28 -3 60 0
85 10 22 8 41 15 42 15 1 1 35 -38 75 -86z m-434 -16 c-29 -41 -78 -112 -108
-157 -30 -45 -62 -90 -70 -100 -8 -11 -40 -56 -70 -101 -51 -75 -139 -200
-157 -225 -4 -5 -13 -19 -19 -29 -22 -39 -24 -38 -190 119 l-84 79 163 108
c89 59 167 112 174 118 7 6 14 11 16 11 3 0 92 58 198 130 106 71 195 128 197
126 2 -2 -21 -38 -50 -79z m949 -647 c1 -11 11 -46 22 -78 10 -31 38 -118 61
-192 23 -74 59 -189 80 -255 38 -117 80 -255 80 -260 0 -1 -30 -1 -67 1 -38 1
-108 3 -158 4 -49 1 -94 5 -100 8 -5 4 -15 7 -21 8 -44 7 -522 229 -549 256
-7 6 -4 12 7 19 9 5 23 15 30 22 15 15 116 98 172 142 21 17 48 39 60 50 66
59 86 74 86 68 0 -5 4 -3 8 4 12 19 265 223 277 223 6 0 11 -9 12 -20z m-222
-16 c-11 -8 -29 -23 -40 -32 -11 -10 -81 -67 -155 -127 -74 -60 -153 -124
-175 -142 -22 -19 -44 -37 -50 -41 -5 -4 -33 -27 -62 -51 -35 -29 -56 -40 -65
-35 -7 5 -15 9 -18 9 -5 1 -65 39 -206 131 -79 52 -115 83 -98 85 16 1 108 24
339 85 11 3 29 7 40 9 11 2 29 6 40 9 64 17 183 48 200 52 11 2 70 17 130 33
129 34 148 37 120 15z m3265 -704 c0 -13 -447 -167 -457 -157 -7 8 29 107 40
108 7 0 19 2 27 3 8 2 38 6 65 10 28 3 64 9 80 11 17 3 50 7 75 10 25 3 65 8
90 11 24 3 46 6 47 8 6 5 33 3 33 -4z m-761 -74 c-2 -2 -78 -38 -169 -79 -91
-41 -201 -92 -245 -112 -44 -21 -89 -39 -101 -41 -65 -12 -443 -18 -569 -10
-171 12 -233 17 -260 20 -16 3 -52 7 -80 11 -27 3 -90 13 -140 22 -49 9 -97
17 -105 18 -8 1 -31 5 -50 10 -19 4 -44 9 -55 11 -11 1 -20 3 -20 4 0 1 -9 3
-20 6 -11 2 -35 6 -53 10 -50 10 -33 28 29 30 30 1 99 5 154 8 184 11 289 17
370 21 209 11 259 14 327 19 40 3 114 8 163 11 50 3 131 7 180 10 155 9 246
14 365 21 63 3 116 7 117 7 1 1 39 3 84 5 46 1 81 1 78 -2z m198 -74 c-6 -20
-12 -38 -13 -40 -3 -4 -194 -48 -244 -57 -19 -3 -44 -8 -55 -11 -38 -11 -1 12
65 41 111 48 214 95 230 104 24 14 29 4 17 -37z"/>
</g>
</svg>
