<svg version="1.2" xmlns="http://www.w3.org/2000/svg" viewBox="0 0 114 152" width="114" height="152">
	<title>logo een revers-svg</title>
	<style>
		tspan { white-space:pre }
		.t0 { font-size: 50px;fill: #FFFFFF;font-weight: 400;font-family: "LiberationSans", "Liberation Sans" }
		.s1 { fill: #FFFFFF; }
	</style>
	<g id="g1679">
		<text id="text4" style="transform: matrix(1,0,0,1,11.96,151.775)" >
			<tspan x="0" y="0" class="t0">een
</tspan>
		</text>
	</g>
	<path id="path4553-9-9-8-9-8-5-0" fill-rule="evenodd" class="s1" d="m56.7 1.1l-0.6 2.1 10.9-1.7 14.2 4.3-5.7 5.1v0.1l11.5-1.8 10.1 8.6-3.6 12.1 0.9-0.3-0.1 0.2 10.1-3.2 4.9 10.6-5.7 15.8c0.1 0.1 0.1 0.1 0.2 0.2l8.5-5.4 0.2 10.4-9 19.5c0.1 0.1 0.2 0.2 0.3 0.4l4-1.9 0.6 1.2-4.2 2.1c-0.1 1.3-1 2.3-2.2 2.5l-2.7 10.9-1.2-0.3 2.9-10.5h-0.1l-27.3 22.9 10.7-1.5 0.2 1.3-12.5 1.7-1.1 3.9-1.2-0.4 0.8-2.9-10.8 4.9-0.5-1.2 8.9-4.1-24 1.4-0.1 2-1.3-0.1v-0.4l-0.5 0.6-1-0.8 0.9-1.2h-0.7l0.2-0.2-6.3-0.2-7.1-3.9 8.7-7.1-14.2 3.6-1.6-2.4 7.2-10.4-11.4 7.6-2-3.1 3-13.9-6.7 8.2-1-0.8 7.9-9.7-10-4.9v10.3h-1.3v-9l-1.1 1.8-1.1-0.7 1.8-3-2.6-0.4 0.2-1.3 3 0.5 10.3-39.2-14.8 22-1.1-0.7 16.4-24.3-6.9-1 0.1-1.3 7.6 1.1 5.2-7.5c-0.5-0.4-0.7-1.1-0.7-1.7 0-1.4 1.2-2.6 2.6-2.6 0.3 0 0.6 0 0.9 0.1l4.9-7.1 1.1 0.7-4.9 7.1c0.4 0.4 0.6 1 0.6 1.6 0 1.5-1.2 2.6-2.6 2.6-0.3 0-0.5 0-0.8-0.1l-3.7 5.3 32.3-20-2-0.8-3.7-1.3 0.4-1.2 3.7 1.3 2.8 1.2 0.8-2.7zm0.1 3.3l14.4 6.1c0.5-0.6 1.2-1 2-1 0.6 0 1.2 0.2 1.6 0.5l4-3.5-11.9-3.7zm-18.6 26.3l32.6-17.8c-0.1-0.3-0.1-0.5-0.1-0.8 0-0.1 0-0.3 0-0.4l-15.4-6.6zm-17.9-4.4l13.7 4.7c0.5-0.8 1.3-1.2 2.2-1.2 0.3 0 0.6 0.1 0.9 0.2l16-24zm55.5-13.9q-0.1 0.5-0.3 0.9l16.9 16.6 3.4-11.5-9-7.7zm-37.1 19.3c0.1 0.2 0.1 0.4 0.1 0.6 0 0.4-0.1 0.7-0.2 1l15.4 11.2 17.6-30.5-0.1-0.1zm34.4-17.1c-0.2 0-0.3 0-0.5 0l-17.1 29.7 14.7-5.5c0-0.2 0-0.3 0-0.4 0-1.5 1.2-2.6 2.6-2.6 0.9 0 1.7 0.5 2.2 1.2l16.5-6.2-16.9-16.6c-0.4 0.3-0.9 0.4-1.5 0.4zm-64.2 52.4l25.3-33c-0.4-0.4-0.6-1-0.6-1.6 0-0.1 0-0.1 0-0.2l-14.3-4.9zm84.7-35.6l8.6 21c0.1 0 0.3 0.1 0.5 0.1l5.4-15.2-4.2-9.1zm-24.5 31.4c0 0 0.1 0.1 0.1 0.2l30.3-7.9c0-0.1 0-0.1 0-0.1 0-0.9 0.5-1.7 1.3-2.2l-8.3-20.4zm6.3-24.6c0 0.1 0 0.1 0 0.2 0 1.4-1.2 2.6-2.6 2.6-0.8 0-1.5-0.4-2-1l-15.6 5.8 11.1 16c0.2-0.1 0.5-0.1 0.7-0.1 0.4 0 0.8 0.1 1.1 0.3l22.7-29.5zm-39.2-3.2q-0.1 0-0.3 0l-7.9 19.8c0.8 0.4 1.2 1.2 1.2 2.1 0 1.4-1.2 2.6-2.6 2.6-0.1 0-0.3 0-0.4 0l-5.5 13.9 32.4-27.9-15.3-11.1c-0.4 0.4-1 0.6-1.6 0.6zm-27.7 34.7l10.3 5.1 6.2-15.8c-0.6-0.5-1-1.2-1-2 0-1.5 1.2-2.6 2.6-2.6 0.1 0 0.1 0 0.2 0l7.1-17.9zm24.2 13.7l31.9-18.4c-0.1-0.2-0.1-0.5-0.1-0.7 0-0.7 0.2-1.3 0.7-1.8l-11-15.8zm-12.6-7.8l9.2 7.5c0.4-0.3 0.8-0.4 1.3-0.4 0.3 0 0.6 0 0.8 0.1l20.2-34.3zm84.4-21.2c0.1 0.2 0.1 0.4 0.1 0.6 0 1.1-0.6 2-1.6 2.4l-0.4 19.5 8.7-18.8-0.1-7.9zm-34.9 9.8c0 0.8-0.5 1.6-1.2 2.1l4.5 17.5 27.1-27.3c0-0.1-0.1-0.1-0.1-0.2zm4.8 19.8l24.6-4.3q0-0.2 0-0.3c0-1.3 1-2.4 2.3-2.5l0.4-19.4c-0.2 0-0.5-0.1-0.7-0.2zm-32.9 10.1l30.3-9.4-4.6-17.9c-0.1 0-0.1 0-0.2 0-0.4 0-0.8 0-1.1-0.2zm-8.3-9.7c0.1 0.3 0.1 0.5 0.1 0.8 0 0.5-0.2 0.9-0.4 1.3l6.6 7.9 24.6-27.7zm-16.9 7.3l1 1.6 10.9-7.2c-0.1-0.3-0.1-0.5-0.1-0.8 0-0.5 0.1-0.9 0.3-1.3l-8.9-7.2zm56.9-6l-1.2 18.6 27.6-23.3zm-15 11.3c0.1 0.3 0.2 0.6 0.2 1 0 1.4-1.2 2.6-2.6 2.6-0.6 0-1.1-0.2-1.6-0.6l-8.8 6.7 25.3-1.5 1.2-18.7zm-17.9-1.2l3.3 10.5 9.7-7.4c-0.1-0.3-0.2-0.6-0.2-0.9 0-1.5 1.2-2.6 2.6-2.6 0.6 0 1.2 0.2 1.6 0.5l12-9.1zm-9.5-7.9c-0.3 0-0.6-0.1-0.9-0.2l-7.2 10.3 0.6 0.9 15.1-3.8-6.4-7.6c-0.4 0.2-0.9 0.3-1.2 0.4zm-0.4 15.8l5.1 2.8 6.9 0.2-3.2-10.2z"/>
	<path id="path817-1-3-6-6-0-9-7-8" fill-rule="evenodd" class="s1" d="m96.8 16.4c10.6 10.6 16.5 24.9 16.5 39.8 0 14.9-6 29.3-16.5 39.8-10.6 10.6-24.9 16.5-39.8 16.5-14.9 0-29.2-5.9-39.8-16.5-10.6-10.6-16.5-24.9-16.5-39.8 0-31.1 25.2-56.3 56.3-56.3 14.9 0 29.2 6 39.8 16.5zm-93.5 39.8c0 14.3 5.6 27.9 15.7 38 10.1 10 23.8 15.7 38 15.7 14.3 0 27.9-5.6 38-15.7 10-10.1 15.7-23.7 15.7-38 0-14.3-5.6-27.9-15.7-38-10.1-10-23.8-15.7-38-15.7-29.7 0-53.7 24-53.7 53.7z"/>
</svg>
