<svg viewBox="791 591 19 18" xmlns="http://www.w3.org/2000/svg"><path d="M791.211 608.965h3.827v-12.532h-3.827v12.532m3.952-16.02c0 1.076-.781 1.948-2.064 1.948-1.208 0-1.989-.872-1.989-1.948 0-1.102.805-1.948 2.039-1.948s1.989.846 2.01 1.948m2.169 7.486c0-1.563-.05-2.87-.1-3.998h3.323l.177 1.743h.075c.503-.82 1.737-2.025 3.802-2.025 2.518 0 4.406 1.717 4.406 5.408v7.406h-3.827v-6.945c0-1.614-.554-2.716-1.939-2.716-1.057 0-1.687.743-1.964 1.461-.101.256-.126.615-.126.974v7.227h-3.827v-8.534" fill="#fff" fill-rule="evenodd"/></svg>