<?xml version="1.0" encoding="UTF-8" standalone="no"?>
<!-- Generator: Adobe Illustrator 25.2.0, SVG Export Plug-In . SVG Version: 6.00 Build 0)  -->

<svg
   version="1.1"
   id="svg2"
   x="0px"
   y="0px"
   viewBox="0 0 112.6 152.5752"
   xml:space="preserve"
   width="112.6"
   height="152.5752"
   xmlns="http://www.w3.org/2000/svg"
   xmlns:svg="http://www.w3.org/2000/svg"><defs
   id="defs12" />
<style
   type="text/css"
   id="style2">
	.st0{font-family:'Carlito';}
	.st1{font-size:49.477px;}
</style>


<g
   id="g1679"
   transform="translate(-937.30552,-280.54432)"
   style="fill:#ffffff">
	<g
   aria-label="een"
   id="text4"
   style="font-size:49.477px;font-family:Carlito"
   class="st0 st1"><path
     d="m 976.39245,419.46986 h -19.8826 q 0,2.48834 0.74892,4.34856 0.74892,1.83606 2.05349,3.01984 1.25625,1.15962 2.97152,1.73943 1.73942,0.5798 3.81707,0.5798 2.75409,0 5.53234,-1.08714 2.80241,-1.1113 3.98618,-2.17428 h 0.24159 v 4.95253 q -2.29508,0.96635 -4.68679,1.61864 -2.39171,0.65228 -5.025,0.65228 -6.71612,0 -10.48488,-3.6238 -3.76875,-3.64797 -3.76875,-10.33992 0,-6.61949 3.59964,-10.50903 3.62381,-3.88955 9.51853,-3.88955 5.45986,0 8.40722,3.18894 2.97152,3.18895 2.97152,9.05951 z m -4.42104,-3.47885 q -0.0242,-3.57549 -1.8119,-5.53234 -1.76359,-1.95686 -5.38739,-1.95686 -3.64796,0 -5.82224,2.15013 -2.15013,2.15012 -2.44003,5.33907 z"
     id="path375" /><path
     d="m 1005.8661,419.46986 h -19.88265 q 0,2.48834 0.74892,4.34856 0.74892,1.83606 2.05349,3.01984 1.25625,1.15962 2.97152,1.73943 1.73943,0.5798 3.81707,0.5798 2.75409,0 5.53235,-1.08714 2.8024,-1.1113 3.9862,-2.17428 h 0.2416 v 4.95253 q -2.2951,0.96635 -4.6868,1.61864 -2.39173,0.65228 -5.02503,0.65228 -6.71612,0 -10.48487,-3.6238 -3.76876,-3.64797 -3.76876,-10.33992 0,-6.61949 3.59965,-10.50903 3.6238,-3.88955 9.51852,-3.88955 5.45987,0 8.40719,3.18894 2.9716,3.18895 2.9716,9.05951 z m -4.4211,-3.47885 q -0.024,-3.57549 -1.81189,-5.53234 -1.76358,-1.95686 -5.38738,-1.95686 -3.64797,0 -5.82225,2.15013 -2.15012,2.15012 -2.44003,5.33907 z"
     id="path377" /><path
     d="m 1035.3155,432.49139 h -4.5418 v -15.36492 q 0,-1.86022 -0.2175,-3.47886 -0.2174,-1.64279 -0.7972,-2.56082 -0.604,-1.01466 -1.7394,-1.49784 -1.1355,-0.50733 -2.9474,-0.50733 -1.8602,0 -3.8895,0.91803 -2.0294,0.91803 -3.8896,2.34339 v 20.14835 h -4.5418 v -26.98525 h 4.5418 v 2.99567 q 2.126,-1.76358 4.3969,-2.75409 2.2709,-0.9905 4.6626,-0.9905 4.3728,0 6.6678,2.63329 2.2951,2.6333 2.2951,7.58583 z"
     id="path379" /></g>
</g><path
   id="path4553-9-9-8-9-8-5-0"
   d="m 54.85,0.8 -0.8,2.7 -2.8,-1.2 -3.7,-1.3 -0.4,1.2 3.7,1.3 2,0.8 -32.3,20 3.7,-5.3 c 0.3,0.1 0.5,0.1 0.8,0.1 1.4,0 2.6,-1.1 2.6,-2.6 0,0 0,0 0,0 0,-0.6 -0.2,-1.2 -0.6,-1.6 l 4.9,-7.1 -1.1,-0.7 -4.9,7.1 c -0.3,-0.1 -0.6,-0.1 -0.9,-0.1 -1.4,0 -2.6,1.2 -2.6,2.6 0,0.6 0.2,1.3 0.7,1.7 l -5.2,7.5 -7.6,-1.1 -0.1,1.3 6.9,1 -16.4,24.3 1.1,0.7 14.8,-22 -10.3,39.2 -3,-0.5 -0.2,1.3 2.6,0.4 -1.8,3 1.1,0.7 1.1,-1.8 v 9 h 1.3 V 71.1 l 10,4.9 -7.9,9.7 1,0.8 6.7,-8.2 -3,13.9 2,3.1 11.4,-7.6 -7.2,10.4 1.6,2.4 14.2,-3.6 -8.7,7.1 7.1,3.9 6.3,0.2 -0.2,0.2 h 0.7 l -0.9,1.2 1,0.8 0.5,-0.6 v 0.4 l 1.3,0.1 0.1,-2 24,-1.4 -8.9,4.1 0.5,1.2 10.8,-4.9 -0.8,2.9 1.2,0.4 1.1,-3.9 12.5,-1.7 -0.2,-1.3 -10.7,1.5 27.3,-22.9 c 0,0 0.1,0 0.1,0 l -2.9,10.5 1.2,0.3 2.7,-10.9 c 1.2,-0.2 2.1,-1.2 2.2,-2.5 l 4.2,-2.1 -0.6,-1.2 -4,1.9 c -0.1,-0.2 -0.2,-0.3 -0.3,-0.4 l 9,-19.5 -0.2,-10.4 -8.5,5.4 c -0.1,-0.1 -0.1,-0.1 -0.2,-0.2 l 5.7,-15.8 -4.9,-10.6 -10.1,3.2 0.1,-0.2 -0.9,0.3 3.6,-12.1 -10.1,-8.6 -11.5,1.8 c 0,0 0,-0.1 0,-0.1 l 5.7,-5.1 -14.2,-4.3 -10.9,1.7 0.6,-2.1 z m 11.4,2.1 11.9,3.7 -4,3.5 c -0.4,-0.3 -1,-0.5 -1.6,-0.5 -0.8,0 -1.5,0.4 -2,1 L 56.15,4.5 Z m -11.6,2.3 15.4,6.6 c 0,0.1 0,0.3 0,0.4 0,0.3 0,0.5 0.1,0.8 l -32.6,17.8 z m -2.2,0.9 -16,24 c -0.3,-0.1 -0.6,-0.2 -0.9,-0.2 -0.9,0 -1.7,0.4 -2.2,1.2 l -13.7,-4.7 z m 33.7,4.7 9,7.7 -3.4,11.5 -16.9,-16.6 c 0.1,-0.3 0.2,-0.6 0.3,-0.9 z M 70.85,14 c 0,0 0.1,0.1 0.1,0.1 L 53.35,44.6 37.95,33.4 c 0.1,-0.3 0.2,-0.6 0.2,-1 0,-0.2 0,-0.4 -0.1,-0.6 z m 3.1,0.3 16.9,16.6 -16.5,6.2 c 0,0 0,0 0,0 -0.5,-0.7 -1.3,-1.2 -2.2,-1.2 -1.4,0 -2.6,1.1 -2.6,2.6 0,0 0,0 0,0 0,0.1 0,0.2 0,0.4 l -14.7,5.5 17.1,-29.7 c 0.2,0 0.3,0 0.5,0 0.6,0 1.1,-0.1 1.5,-0.4 z m -55.3,13.1 14.3,4.9 c 0,0.1 0,0.1 0,0.2 0,0.6 0.2,1.2 0.6,1.6 l -25.3,33 z m 84.6,0.9 4.2,9.1 -5.4,15.2 c -0.2,0 -0.4,-0.1 -0.5,-0.1 l -8.6,-21 z m -11.4,4.2 8.3,20.4 c -0.8,0.5 -1.3,1.3 -1.3,2.2 0,0 0,0 0,0.1 l -30.3,7.9 c 0,-0.1 -0.1,-0.2 -0.1,-0.2 z m -1.7,0.1 -22.7,29.5 c -0.3,-0.2 -0.7,-0.3 -1.1,-0.3 -0.2,0 -0.5,0 -0.7,0.1 l -11.1,-16 15.6,-5.8 c 0.5,0.6 1.2,1 2,1 1.4,0 2.6,-1.2 2.6,-2.6 0,-0.1 0,-0.1 0,-0.2 z m -53,1.9 15.3,11.1 -32.4,27.9 5.5,-13.9 c 0.1,0 0.3,0 0.4,0 1.4,0 2.6,-1.2 2.6,-2.6 0,-0.9 -0.4,-1.7 -1.2,-2.1 l 7.9,-19.8 c 0.1,0 0.2,0 0.3,0 0.6,0 1.2,-0.2 1.6,-0.6 z m -3.9,2.1 -7.1,17.9 c -0.1,0 -0.1,0 -0.2,0 -1.4,0 -2.6,1.1 -2.6,2.6 0,0.8 0.4,1.5 1,2 l -6.2,15.8 -10.3,-5.1 z m 20.3,10.2 11,15.8 c -0.5,0.5 -0.7,1.1 -0.7,1.8 0,0.2 0,0.5 0.1,0.7 l -31.9,18.4 z m -2.6,1.8 -20.2,34.3 c -0.2,-0.1 -0.5,-0.1 -0.8,-0.1 -0.5,0 -0.9,0.1 -1.3,0.4 l -9.2,-7.5 z m 59.6,1.7 0.1,7.9 -8.7,18.8 0.4,-19.5 c 1,-0.4 1.6,-1.3 1.6,-2.4 0,-0.2 0,-0.4 -0.1,-0.6 z m -11.3,6.1 c 0,0.1 0.1,0.1 0.1,0.2 l -27.1,27.3 -4.5,-17.5 c 0.7,-0.5 1.2,-1.3 1.2,-2.1 0,0 0,0 0,0 z m 1.1,1 c 0.2,0.1 0.5,0.2 0.7,0.2 l -0.4,19.4 c -1.3,0.1 -2.3,1.2 -2.3,2.5 0,0.1 0,0.2 0,0.3 l -24.6,4.3 z m -35.1,9.3 c 0.3,0.2 0.7,0.2 1.1,0.2 0.1,0 0.1,0 0.2,0 l 4.6,17.9 -30.3,9.4 z m -1.8,0.1 -24.6,27.7 -6.6,-7.9 c 0.2,-0.4 0.4,-0.8 0.4,-1.3 0,-0.3 0,-0.5 -0.1,-0.8 z m -44.6,10.1 8.9,7.2 c -0.2,0.4 -0.3,0.8 -0.3,1.3 0,0.3 0,0.5 0.1,0.8 l -10.9,7.2 -1,-1.6 z m 80.1,4.2 c 0,0 0,0 0,0 l -27.6,23.3 1.2,-18.6 z m -27.7,5.5 -1.2,18.7 -25.3,1.5 8.8,-6.7 c 0.5,0.4 1,0.6 1.6,0.6 1.4,0 2.6,-1.2 2.6,-2.6 0,-0.4 -0.1,-0.7 -0.2,-1 z m -2.6,0.3 -12,9.1 c -0.4,-0.3 -1,-0.5 -1.6,-0.5 -1.4,0 -2.6,1.1 -2.6,2.6 0,0 0,0 0,0 0,0.3 0.1,0.6 0.2,0.9 l -9.7,7.4 -3.3,-10.5 z m -37.3,0.7 6.4,7.6 -15.1,3.8 -0.6,-0.9 7.2,-10.3 c 0.3,0.1 0.6,0.2 0.9,0.2 0.3,-0.1 0.8,-0.2 1.2,-0.4 z m 7.2,9 3.2,10.2 -6.9,-0.2 -5.1,-2.8 z"
   style="fill:#ffffff" /><path
   id="path817-1-3-6-6-0-9-7-8"
   d="M 56.3,0 C 25.2,0 0,25.2 0,56.3 c 0,14.9 5.9,29.2 16.5,39.8 10.6,10.6 24.9,16.5 39.8,16.5 14.9,0 29.2,-5.9 39.8,-16.5 10.5,-10.5 16.5,-24.9 16.5,-39.8 0,-14.9 -5.9,-29.2 -16.5,-39.8 C 85.5,6 71.2,0 56.3,0 Z m 0,2.6 c 14.2,0 27.9,5.7 38,15.7 10.1,10.1 15.7,23.7 15.7,38 0,14.3 -5.7,27.9 -15.7,38 C 84.2,104.4 70.6,110 56.3,110 42.1,110 28.4,104.3 18.3,94.3 8.2,84.2 2.6,70.6 2.6,56.3 2.6,26.6 26.6,2.6 56.3,2.6 Z"
   style="fill:#ffffff" />
</svg>
