<svg viewBox="0 0 20 17" xmlns="http://www.w3.org/2000/svg"><path d="M20 1.924a8.212 8.212 0 0 1-2.357.646A4.115 4.115 0 0 0 19.447.3a8.221 8.221 0 0 1-2.606.996A4.1 4.1 0 0 0 13.846 0C11.197 0 9.25 2.472 9.849 5.04A11.648 11.648 0 0 1 1.392.753a4.107 4.107 0 0 0 1.27 5.478 4.083 4.083 0 0 1-1.858-.513C.759 7.619 2.122 9.397 4.095 9.793a4.111 4.111 0 0 1-1.853.07 4.106 4.106 0 0 0 3.833 2.849A8.25 8.25 0 0 1 0 14.411a11.617 11.617 0 0 0 6.29 1.844c7.618 0 11.922-6.435 11.663-12.206A8.319 8.319 0 0 0 20 1.925" fill="#fff" fill-rule="evenodd"/></svg>